<svg width="134" height="34" viewBox="0 0 134 34" fill="none" xmlns="http://www.w3.org/2000/svg">
<path d="M68.4487 29.5023C68.4487 29.8472 68.1677 30.1268 67.8211 30.1268C67.4744 30.1268 67.1934 29.8472 67.1934 29.5023C67.1934 29.1575 67.4744 28.8779 67.8211 28.8779C68.1677 28.8779 68.4487 29.1575 68.4487 29.5023Z" fill="black"/>
<path d="M20.377 26.6987L18.7891 30.67C18.7807 30.695 18.7661 30.7158 18.7451 30.7324C18.7242 30.7449 18.7012 30.7512 18.6761 30.7512C18.6342 30.7512 18.6029 30.7408 18.5819 30.7199C18.561 30.6991 18.5485 30.6742 18.5443 30.645C18.5401 30.6284 18.5422 30.6076 18.5506 30.5826L20.2389 26.449C20.2515 26.4157 20.2661 26.3948 20.2829 26.3865C20.3038 26.374 20.3289 26.3678 20.3582 26.3678C20.3917 26.3678 20.4189 26.3761 20.4398 26.3928C20.4607 26.4052 20.4754 26.424 20.4837 26.449L22.1721 30.5826C22.1763 30.5951 22.1784 30.6117 22.1784 30.6325C22.1784 30.67 22.1658 30.6991 22.1407 30.7199C22.1156 30.7408 22.0842 30.7512 22.0466 30.7512C22.0173 30.7512 21.9901 30.7449 21.965 30.7324C21.9441 30.7158 21.9294 30.695 21.9211 30.67L20.2829 26.6488L20.377 26.6987ZM19.2159 29.3962L19.3037 29.1464H21.3373L21.4001 29.3962H19.2159Z" fill="black"/>
<path d="M22.6078 30.7512C22.5701 30.7512 22.5388 30.7387 22.5137 30.7137C22.4927 30.6887 22.4823 30.6596 22.4823 30.6263V27.7602C22.4823 27.7269 22.4948 27.6978 22.5199 27.6728C22.545 27.6478 22.5743 27.6353 22.6078 27.6353C22.6455 27.6353 22.6748 27.6478 22.6957 27.6728C22.7208 27.6978 22.7333 27.7269 22.7333 27.7602V28.8155L22.6266 28.9778C22.6266 28.8155 22.6538 28.6511 22.7082 28.4845C22.7668 28.318 22.8505 28.164 22.9593 28.0225C23.0681 27.8768 23.1999 27.7602 23.3547 27.6728C23.5137 27.5812 23.6957 27.5354 23.9008 27.5354C23.9593 27.5354 24.0221 27.5438 24.0891 27.5604C24.156 27.5771 24.1895 27.6166 24.1895 27.679C24.1895 27.7165 24.179 27.7477 24.1581 27.7727C24.1372 27.7977 24.11 27.8102 24.0765 27.8102C24.0514 27.8102 24.02 27.8019 23.9824 27.7852C23.9489 27.7644 23.8987 27.754 23.8317 27.754C23.6978 27.754 23.566 27.7935 23.4363 27.8726C23.3066 27.9517 23.1873 28.0579 23.0785 28.1911C22.9739 28.3201 22.8902 28.4616 22.8275 28.6157C22.7647 28.7697 22.7333 28.9196 22.7333 29.0653V30.6263C22.7333 30.6596 22.7208 30.6887 22.6957 30.7137C22.6706 30.7387 22.6413 30.7512 22.6078 30.7512Z" fill="black"/>
<path d="M24.065 27.6104H25.5211C25.5546 27.6104 25.5818 27.6229 25.6027 27.6478C25.6278 27.6728 25.6404 27.6999 25.6404 27.729C25.6404 27.7623 25.6278 27.7914 25.6027 27.8164C25.5818 27.8372 25.5546 27.8476 25.5211 27.8476H24.065C24.0357 27.8476 24.0085 27.8352 23.9834 27.8102C23.9583 27.7852 23.9457 27.7581 23.9457 27.729C23.9457 27.6957 23.9583 27.6686 23.9834 27.6478C24.0085 27.6229 24.0357 27.6104 24.065 27.6104ZM24.7052 26.6925C24.7429 26.6925 24.7721 26.705 24.7931 26.7299C24.8182 26.7549 24.8307 26.7841 24.8307 26.8174V30.0706C24.8307 30.2079 24.8475 30.3099 24.8809 30.3765C24.9186 30.439 24.9646 30.4806 25.019 30.5014C25.0734 30.5181 25.1257 30.5264 25.1759 30.5264C25.2052 30.5264 25.2303 30.5222 25.2513 30.5139C25.2722 30.5056 25.2973 30.5014 25.3266 30.5014C25.3559 30.5014 25.381 30.5139 25.4019 30.5389C25.4228 30.5597 25.4333 30.5847 25.4333 30.6138C25.4333 30.6513 25.4082 30.6846 25.358 30.7137C25.3119 30.7387 25.2533 30.7512 25.1822 30.7512C25.1571 30.7512 25.1111 30.7512 25.0441 30.7512C24.9814 30.747 24.9123 30.7283 24.837 30.695C24.7659 30.6575 24.7052 30.593 24.655 30.5014C24.6048 30.4057 24.5797 30.2662 24.5797 30.083V26.8174C24.5797 26.7841 24.5922 26.7549 24.6173 26.7299C24.6424 26.705 24.6717 26.6925 24.7052 26.6925Z" fill="black"/>
<path d="M26.1513 30.6263C26.1513 30.6596 26.1388 30.6887 26.1137 30.7137C26.0886 30.7387 26.0593 30.7512 26.0258 30.7512C25.9882 30.7512 25.9568 30.7387 25.9317 30.7137C25.9107 30.6887 25.9003 30.6596 25.9003 30.6263V27.6603C25.9003 27.627 25.9128 27.5979 25.9379 27.5729C25.963 27.5479 25.9923 27.5354 26.0258 27.5354C26.0635 27.5354 26.0928 27.5479 26.1137 27.5729C26.1388 27.5979 26.1513 27.627 26.1513 27.6603V30.6263ZM26.0258 27.1108C25.9589 27.1108 25.9045 27.0921 25.8626 27.0546C25.825 27.0172 25.8061 26.9693 25.8061 26.911V26.8611C25.8061 26.8028 25.8271 26.7549 25.8689 26.7174C25.9107 26.68 25.9651 26.6613 26.0321 26.6613C26.0907 26.6613 26.1388 26.68 26.1764 26.7174C26.2183 26.7549 26.2392 26.8028 26.2392 26.8611V26.911C26.2392 26.9693 26.2183 27.0172 26.1764 27.0546C26.1388 27.0921 26.0886 27.1108 26.0258 27.1108Z" fill="black"/>
<path d="M27.7334 26.1617C27.7836 26.1617 27.8422 26.1659 27.9091 26.1742C27.9803 26.1825 28.0409 26.1992 28.0911 26.2242C28.1455 26.2491 28.1727 26.2866 28.1727 26.3366C28.1727 26.3657 28.1602 26.3948 28.1351 26.424C28.1142 26.449 28.087 26.4614 28.0535 26.4614C28.0116 26.4614 27.9614 26.449 27.9028 26.424C27.8443 26.399 27.7794 26.3865 27.7083 26.3865C27.6246 26.3865 27.5493 26.4052 27.4823 26.4427C27.4195 26.4802 27.3693 26.5385 27.3317 26.6175C27.2982 26.6925 27.2815 26.7903 27.2815 26.911V30.6263C27.2815 30.6596 27.2689 30.6887 27.2438 30.7137C27.2187 30.7387 27.1894 30.7512 27.1559 30.7512C27.1183 30.7512 27.0869 30.7387 27.0618 30.7137C27.0409 30.6887 27.0304 30.6596 27.0304 30.6263V26.911C27.0304 26.6529 27.0994 26.4635 27.2375 26.3428C27.3756 26.2221 27.5409 26.1617 27.7334 26.1617ZM28.0221 27.6728C28.0556 27.6728 28.0828 27.6853 28.1037 27.7103C28.1288 27.7311 28.1413 27.7581 28.1413 27.7914C28.1413 27.8247 28.1288 27.8539 28.1037 27.8789C28.0828 27.8997 28.0556 27.9101 28.0221 27.9101H26.5283C26.499 27.9101 26.4718 27.8976 26.4467 27.8726C26.4216 27.8476 26.409 27.8206 26.409 27.7914C26.409 27.754 26.4216 27.7248 26.4467 27.704C26.4718 27.6832 26.499 27.6728 26.5283 27.6728H28.0221ZM29.1017 30.6263C29.1017 30.6596 29.0891 30.6887 29.064 30.7137C29.0389 30.7387 29.0096 30.7512 28.9761 30.7512C28.9385 30.7512 28.9071 30.7387 28.882 30.7137C28.8611 30.6887 28.8506 30.6596 28.8506 30.6263V27.6603C28.8506 27.627 28.8631 27.5979 28.8883 27.5729C28.9134 27.5479 28.9427 27.5354 28.9761 27.5354C29.0138 27.5354 29.0431 27.5479 29.064 27.5729C29.0891 27.5979 29.1017 27.627 29.1017 27.6603V30.6263ZM28.9761 27.1108C28.9092 27.1108 28.8548 27.0921 28.8129 27.0546C28.7753 27.0172 28.7565 26.9693 28.7565 26.911V26.8611C28.7565 26.8028 28.7774 26.7549 28.8192 26.7174C28.8611 26.68 28.9155 26.6613 28.9824 26.6613C29.041 26.6613 29.0891 26.68 29.1268 26.7174C29.1686 26.7549 29.1895 26.8028 29.1895 26.8611V26.911C29.1895 26.9693 29.1686 27.0172 29.1268 27.0546C29.0891 27.0921 29.0389 27.1108 28.9761 27.1108Z" fill="black"/>
<path d="M31.0916 27.5354C31.2799 27.5354 31.4556 27.5562 31.6188 27.5979C31.7862 27.6395 31.9201 27.6957 32.0205 27.7665C32.1251 27.8331 32.1774 27.9038 32.1774 27.9788C32.1774 28.0079 32.1649 28.037 32.1397 28.0662C32.1188 28.0912 32.0916 28.1037 32.0582 28.1037C32.0121 28.1037 31.9745 28.0912 31.9452 28.0662C31.9201 28.0412 31.8929 28.0121 31.8636 27.9788C31.8343 27.9413 31.7883 27.908 31.7255 27.8789C31.6669 27.8497 31.5832 27.8247 31.4744 27.8039C31.3698 27.7831 31.2401 27.7727 31.0853 27.7727C30.8426 27.7727 30.6208 27.8352 30.42 27.96C30.2191 28.0849 30.058 28.2535 29.9367 28.4658C29.8195 28.674 29.7609 28.9091 29.7609 29.1714C29.7609 29.4378 29.8153 29.6772 29.9241 29.8895C30.0371 30.1018 30.1919 30.2704 30.3886 30.3953C30.5894 30.516 30.8217 30.5763 31.0853 30.5763C31.2736 30.5763 31.4159 30.5597 31.5121 30.5264C31.6125 30.4889 31.6983 30.4494 31.7694 30.4077C31.8573 30.3578 31.918 30.3099 31.9515 30.2641C31.9849 30.2183 32.0247 30.1954 32.0707 30.1954C32.1042 30.1954 32.1293 30.2058 32.146 30.2267C32.1669 30.2475 32.1774 30.2745 32.1774 30.3078C32.1774 30.3578 32.1314 30.4244 32.0393 30.5076C31.9473 30.5867 31.8176 30.6575 31.6502 30.7199C31.487 30.7824 31.2924 30.8136 31.0665 30.8136C30.761 30.8136 30.4911 30.7428 30.2568 30.6013C30.0225 30.4556 29.8383 30.26 29.7044 30.0144C29.5747 29.7646 29.5099 29.4836 29.5099 29.1714C29.5099 28.88 29.5747 28.6115 29.7044 28.3659C29.8383 28.1161 30.0225 27.9163 30.2568 27.7665C30.4953 27.6124 30.7736 27.5354 31.0916 27.5354Z" fill="black"/>
<path d="M32.7586 30.6263C32.7586 30.6596 32.7461 30.6887 32.721 30.7137C32.6959 30.7387 32.6666 30.7512 32.6331 30.7512C32.5954 30.7512 32.564 30.7387 32.5389 30.7137C32.518 30.6887 32.5076 30.6596 32.5076 30.6263V27.6603C32.5076 27.627 32.5201 27.5979 32.5452 27.5729C32.5703 27.5479 32.5996 27.5354 32.6331 27.5354C32.6707 27.5354 32.7 27.5479 32.721 27.5729C32.7461 27.5979 32.7586 27.627 32.7586 27.6603V30.6263ZM32.6331 27.1108C32.5661 27.1108 32.5117 27.0921 32.4699 27.0546C32.4322 27.0172 32.4134 26.9693 32.4134 26.911V26.8611C32.4134 26.8028 32.4343 26.7549 32.4762 26.7174C32.518 26.68 32.5724 26.6613 32.6394 26.6613C32.6979 26.6613 32.7461 26.68 32.7837 26.7174C32.8256 26.7549 32.8465 26.8028 32.8465 26.8611V26.911C32.8465 26.9693 32.8256 27.0172 32.7837 27.0546C32.7461 27.0921 32.6959 27.1108 32.6331 27.1108Z" fill="black"/>
<path d="M35.9537 27.6353C35.9914 27.6353 36.0207 27.6478 36.0416 27.6728C36.0667 27.6978 36.0793 27.7269 36.0793 27.7602V30.6263C36.0793 30.6596 36.0667 30.6887 36.0416 30.7137C36.0165 30.7387 35.9872 30.7512 35.9537 30.7512C35.9161 30.7512 35.8847 30.7387 35.8596 30.7137C35.8386 30.6887 35.8282 30.6596 35.8282 30.6263V29.7396L35.9286 29.6584C35.9286 29.7917 35.8951 29.9269 35.8282 30.0643C35.7612 30.2017 35.6692 30.3266 35.552 30.439C35.4349 30.5514 35.2968 30.6429 35.1378 30.7137C34.9788 30.7803 34.8072 30.8136 34.6231 30.8136C34.3427 30.8136 34.0917 30.7408 33.8699 30.5951C33.6523 30.4494 33.4808 30.2516 33.3552 30.0019C33.2297 29.7521 33.1669 29.4711 33.1669 29.1589C33.1669 28.8425 33.2297 28.5636 33.3552 28.3222C33.485 28.0766 33.6586 27.8851 33.8762 27.7477C34.098 27.6062 34.3469 27.5354 34.6231 27.5354C34.803 27.5354 34.9725 27.5687 35.1315 27.6353C35.2905 27.6978 35.4286 27.7873 35.5457 27.9038C35.6671 28.0204 35.7612 28.1578 35.8282 28.316C35.8951 28.47 35.9286 28.6386 35.9286 28.8217L35.8282 28.6656V27.7602C35.8282 27.7269 35.8386 27.6978 35.8596 27.6728C35.8847 27.6478 35.9161 27.6353 35.9537 27.6353ZM34.6356 30.5763C34.87 30.5763 35.0792 30.516 35.2633 30.3953C35.4474 30.2704 35.5918 30.1018 35.6964 29.8895C35.801 29.673 35.8533 29.4295 35.8533 29.1589C35.8533 28.9008 35.801 28.6677 35.6964 28.4596C35.5918 28.2473 35.4474 28.0808 35.2633 27.96C35.0792 27.8352 34.87 27.7727 34.6356 27.7727C34.4055 27.7727 34.1984 27.8331 34.0143 27.9538C33.8302 28.0704 33.6837 28.2327 33.5749 28.4408C33.4703 28.649 33.418 28.8883 33.418 29.1589C33.418 29.4295 33.4703 29.673 33.5749 29.8895C33.6795 30.1018 33.8239 30.2704 34.008 30.3953C34.1921 30.516 34.4013 30.5763 34.6356 30.5763Z" fill="black"/>
<path d="M36.9619 30.6263C36.9619 30.6596 36.9494 30.6887 36.9243 30.7137C36.8992 30.7387 36.8699 30.7512 36.8364 30.7512C36.7987 30.7512 36.7674 30.7387 36.7423 30.7137C36.7213 30.6887 36.7109 30.6596 36.7109 30.6263V26.2554C36.7109 26.2221 36.7234 26.1929 36.7485 26.168C36.7736 26.143 36.8029 26.1305 36.8364 26.1305C36.8741 26.1305 36.9034 26.143 36.9243 26.168C36.9494 26.1929 36.9619 26.2221 36.9619 26.2554V30.6263Z" fill="black"/>
<path d="M39.2174 30.62C39.2132 30.6575 39.1986 30.6887 39.1735 30.7137C39.1484 30.7387 39.1191 30.7512 39.0856 30.7512C39.0438 30.7512 39.0103 30.7387 38.9852 30.7137C38.9643 30.6887 38.9538 30.6575 38.9538 30.62V26.5114C38.9538 26.4739 38.9664 26.4427 38.9915 26.4177C39.0166 26.3928 39.048 26.3803 39.0856 26.3803C39.1233 26.3803 39.1547 26.3928 39.1798 26.4177C39.2049 26.4427 39.2174 26.4739 39.2174 26.5114V30.62Z" fill="black"/>
<path d="M41.3526 27.5354C41.6162 27.5354 41.8296 27.5875 41.9928 27.6915C42.1602 27.7956 42.2815 27.9371 42.3569 28.1161C42.4364 28.2951 42.4761 28.495 42.4761 28.7156V30.6263C42.4761 30.6596 42.4636 30.6887 42.4385 30.7137C42.4133 30.7387 42.3841 30.7512 42.3506 30.7512C42.3129 30.7512 42.2815 30.7387 42.2564 30.7137C42.2355 30.6887 42.2251 30.6596 42.2251 30.6263V28.7406C42.2251 28.5616 42.1937 28.3992 42.1309 28.2535C42.0723 28.1078 41.9761 27.9913 41.8422 27.9038C41.7125 27.8164 41.5409 27.7727 41.3275 27.7727C41.1434 27.7727 40.9635 27.8164 40.7877 27.9038C40.612 27.9913 40.4655 28.1078 40.3484 28.2535C40.2354 28.3992 40.1789 28.5616 40.1789 28.7406V30.6263C40.1789 30.6596 40.1664 30.6887 40.1412 30.7137C40.1161 30.7387 40.0868 30.7512 40.0534 30.7512C40.0157 30.7512 39.9843 30.7387 39.9592 30.7137C39.9383 30.6887 39.9278 30.6596 39.9278 30.6263V27.7602C39.9278 27.7269 39.9404 27.6978 39.9655 27.6728C39.9906 27.6478 40.0199 27.6353 40.0534 27.6353C40.091 27.6353 40.1203 27.6478 40.1412 27.6728C40.1664 27.6978 40.1789 27.7269 40.1789 27.7602V28.3721L40.022 28.6719C40.022 28.522 40.0617 28.3784 40.1412 28.241C40.2207 28.1037 40.3254 27.9829 40.4551 27.8789C40.5848 27.7706 40.7271 27.6874 40.8819 27.6291C41.0409 27.5667 41.1978 27.5354 41.3526 27.5354Z" fill="black"/>
<path d="M42.7916 27.6104H44.2478C44.2812 27.6104 44.3084 27.6229 44.3294 27.6478C44.3545 27.6728 44.367 27.6999 44.367 27.729C44.367 27.7623 44.3545 27.7914 44.3294 27.8164C44.3084 27.8372 44.2812 27.8476 44.2478 27.8476H42.7916C42.7623 27.8476 42.7351 27.8352 42.71 27.8102C42.6849 27.7852 42.6724 27.7581 42.6724 27.729C42.6724 27.6957 42.6849 27.6686 42.71 27.6478C42.7351 27.6229 42.7623 27.6104 42.7916 27.6104ZM43.4318 26.6925C43.4695 26.6925 43.4988 26.705 43.5197 26.7299C43.5448 26.7549 43.5573 26.7841 43.5573 26.8174V30.0706C43.5573 30.2079 43.5741 30.3099 43.6076 30.3765C43.6452 30.439 43.6912 30.4806 43.7456 30.5014C43.8 30.5181 43.8523 30.5264 43.9026 30.5264C43.9318 30.5264 43.957 30.5222 43.9779 30.5139C43.9988 30.5056 44.0239 30.5014 44.0532 30.5014C44.0825 30.5014 44.1076 30.5139 44.1285 30.5389C44.1494 30.5597 44.1599 30.5847 44.1599 30.6138C44.1599 30.6513 44.1348 30.6846 44.0846 30.7137C44.0385 30.7387 43.98 30.7512 43.9088 30.7512C43.8837 30.7512 43.8377 30.7512 43.7707 30.7512C43.708 30.747 43.6389 30.7283 43.5636 30.695C43.4925 30.6575 43.4318 30.593 43.3816 30.5014C43.3314 30.4057 43.3063 30.2662 43.3063 30.083V26.8174C43.3063 26.7841 43.3188 26.7549 43.3439 26.7299C43.369 26.705 43.3983 26.6925 43.4318 26.6925Z" fill="black"/>
<path d="M46.0085 30.8136C45.6947 30.8136 45.4164 30.747 45.1737 30.6138C44.9352 30.4806 44.7469 30.2933 44.6088 30.0518C44.4707 29.8062 44.4017 29.519 44.4017 29.1901C44.4017 28.8405 44.4686 28.5428 44.6025 28.2972C44.7406 28.0516 44.9164 27.8643 45.1298 27.7352C45.3474 27.602 45.5775 27.5354 45.8202 27.5354C45.9959 27.5354 46.1675 27.5646 46.3349 27.6229C46.5022 27.677 46.6508 27.7644 46.7805 27.8851C46.9144 28.0017 47.0211 28.1494 47.1006 28.3284C47.1843 28.5033 47.2303 28.7135 47.2387 28.9591C47.2387 28.9924 47.2261 29.0236 47.201 29.0528C47.1759 29.0777 47.1466 29.0902 47.1131 29.0902H44.5523L44.5147 28.8529H47.0441L46.9813 28.9091V28.7968C46.9604 28.5761 46.8893 28.3909 46.7679 28.241C46.6508 28.0912 46.5085 27.9788 46.3411 27.9038C46.1738 27.8247 46.0001 27.7852 45.8202 27.7852C45.6947 27.7852 45.5628 27.8143 45.4248 27.8726C45.2867 27.9267 45.1591 28.0121 45.0419 28.1286C44.9247 28.241 44.8285 28.3846 44.7532 28.5595C44.682 28.7343 44.6465 28.9383 44.6465 29.1714C44.6465 29.4253 44.6967 29.6584 44.7971 29.8707C44.9017 30.083 45.0544 30.2537 45.2553 30.3828C45.4603 30.5118 45.7114 30.5763 46.0085 30.5763C46.1507 30.5763 46.2846 30.5534 46.4102 30.5076C46.5357 30.4577 46.6487 30.3932 46.7491 30.3141C46.8495 30.235 46.9311 30.1497 46.9939 30.0581C47.0274 30.0206 47.0629 30.0019 47.1006 30.0019C47.1299 30.0019 47.155 30.0144 47.1759 30.0393C47.1968 30.0602 47.2073 30.0851 47.2073 30.1143C47.2073 30.1434 47.1989 30.1684 47.1822 30.1892C47.0525 30.3557 46.8851 30.5014 46.6801 30.6263C46.4792 30.7512 46.2554 30.8136 46.0085 30.8136Z" fill="black"/>
<path d="M47.927 30.6263C47.927 30.6596 47.9144 30.6887 47.8893 30.7137C47.8642 30.7387 47.8349 30.7512 47.8015 30.7512C47.7638 30.7512 47.7324 30.7387 47.7073 30.7137C47.6864 30.6887 47.6759 30.6596 47.6759 30.6263V26.2554C47.6759 26.2221 47.6885 26.1929 47.7136 26.168C47.7387 26.143 47.768 26.1305 47.8015 26.1305C47.8391 26.1305 47.8684 26.143 47.8893 26.168C47.9144 26.1929 47.927 26.2221 47.927 26.2554V30.6263Z" fill="black"/>
<path d="M48.8422 30.6263C48.8422 30.6596 48.8297 30.6887 48.8046 30.7137C48.7795 30.7387 48.7502 30.7512 48.7167 30.7512C48.6791 30.7512 48.6477 30.7387 48.6226 30.7137C48.6016 30.6887 48.5912 30.6596 48.5912 30.6263V26.2554C48.5912 26.2221 48.6037 26.1929 48.6288 26.168C48.6539 26.143 48.6832 26.1305 48.7167 26.1305C48.7544 26.1305 48.7837 26.143 48.8046 26.168C48.8297 26.1929 48.8422 26.2221 48.8422 26.2554V30.6263Z" fill="black"/>
<path d="M49.7261 30.6263C49.7261 30.6596 49.7135 30.6887 49.6884 30.7137C49.6633 30.7387 49.634 30.7512 49.6006 30.7512C49.5629 30.7512 49.5315 30.7387 49.5064 30.7137C49.4855 30.6887 49.475 30.6596 49.475 30.6263V27.6603C49.475 27.627 49.4876 27.5979 49.5127 27.5729C49.5378 27.5479 49.5671 27.5354 49.6006 27.5354C49.6382 27.5354 49.6675 27.5479 49.6884 27.5729C49.7135 27.5979 49.7261 27.627 49.7261 27.6603V30.6263ZM49.6006 27.1108C49.5336 27.1108 49.4792 27.0921 49.4374 27.0546C49.3997 27.0172 49.3809 26.9693 49.3809 26.911V26.8611C49.3809 26.8028 49.4018 26.7549 49.4437 26.7174C49.4855 26.68 49.5399 26.6613 49.6068 26.6613C49.6654 26.6613 49.7135 26.68 49.7512 26.7174C49.793 26.7549 49.814 26.8028 49.814 26.8611V26.911C49.814 26.9693 49.793 27.0172 49.7512 27.0546C49.7135 27.0921 49.6633 27.1108 49.6006 27.1108Z" fill="black"/>
<path d="M51.6533 27.5354C51.8416 27.5354 52.0174 27.5687 52.1806 27.6353C52.3438 27.7019 52.486 27.7894 52.6074 27.8976C52.7329 28.0058 52.8291 28.1224 52.8961 28.2473C52.9672 28.3721 53.0028 28.495 53.0028 28.6157L52.9212 28.3846V27.7602C52.9212 27.7269 52.9317 27.6978 52.9526 27.6728C52.9777 27.6478 53.0091 27.6353 53.0467 27.6353C53.0844 27.6353 53.1137 27.6478 53.1346 27.6728C53.1597 27.6978 53.1723 27.7269 53.1723 27.7602V30.4452C53.1723 30.7657 53.1053 31.0426 52.9714 31.2757C52.8417 31.5088 52.6618 31.6878 52.4316 31.8127C52.2015 31.9376 51.9337 32 51.6282 32C51.4609 32 51.2914 31.9771 51.1198 31.9313C50.9525 31.8897 50.8123 31.8356 50.6993 31.769C50.5863 31.7024 50.5298 31.6316 50.5298 31.5567C50.5298 31.5234 50.5382 31.4963 50.5549 31.4755C50.5759 31.4547 50.6031 31.4443 50.6365 31.4443C50.6784 31.4443 50.716 31.4672 50.7495 31.513C50.7872 31.5587 50.852 31.6004 50.9441 31.6378C50.9817 31.6503 51.032 31.667 51.0947 31.6878C51.1617 31.7086 51.2412 31.7253 51.3332 31.7377C51.4253 31.7544 51.5278 31.7627 51.6408 31.7627C52.0383 31.7627 52.35 31.6399 52.576 31.3943C52.8061 31.1529 52.9212 30.8365 52.9212 30.4452V29.827L52.984 29.8333C52.9338 30.0123 52.8605 30.1642 52.7643 30.2891C52.668 30.414 52.5572 30.516 52.4316 30.5951C52.3103 30.67 52.1806 30.7241 52.0425 30.7574C51.9086 30.7949 51.7789 30.8136 51.6533 30.8136C51.3646 30.8136 51.1052 30.7428 50.875 30.6013C50.6491 30.4556 50.4692 30.26 50.3353 30.0144C50.2014 29.7646 50.1344 29.4836 50.1344 29.1714C50.1344 28.8592 50.2014 28.5803 50.3353 28.3347C50.4692 28.0849 50.6491 27.8893 50.875 27.7477C51.1052 27.6062 51.3646 27.5354 51.6533 27.5354ZM51.6659 27.7727C51.4232 27.7727 51.2035 27.8331 51.0069 27.9538C50.8144 28.0745 50.6616 28.241 50.5487 28.4533C50.4399 28.6615 50.3855 28.9008 50.3855 29.1714C50.3855 29.4378 50.4399 29.6772 50.5487 29.8895C50.6616 30.1018 50.8144 30.2704 51.0069 30.3953C51.2035 30.516 51.4232 30.5763 51.6659 30.5763C51.9086 30.5763 52.1262 30.5181 52.3186 30.4015C52.5111 30.2808 52.6639 30.1163 52.7768 29.9082C52.8898 29.6959 52.9463 29.4503 52.9463 29.1714C52.9463 28.8925 52.8898 28.649 52.7768 28.4408C52.6639 28.2285 52.5111 28.0641 52.3186 27.9475C52.1262 27.831 51.9086 27.7727 51.6659 27.7727Z" fill="black"/>
<path d="M55.0653 30.8136C54.7515 30.8136 54.4732 30.747 54.2305 30.6138C53.992 30.4806 53.8037 30.2933 53.6657 30.0518C53.5276 29.8062 53.4585 29.519 53.4585 29.1901C53.4585 28.8405 53.5255 28.5428 53.6594 28.2972C53.7975 28.0516 53.9732 27.8643 54.1866 27.7352C54.4042 27.602 54.6343 27.5354 54.877 27.5354C55.0528 27.5354 55.2243 27.5646 55.3917 27.6229C55.5591 27.677 55.7076 27.7644 55.8373 27.8851C55.9712 28.0017 56.0779 28.1494 56.1574 28.3284C56.2411 28.5033 56.2872 28.7135 56.2955 28.9591C56.2955 28.9924 56.283 29.0236 56.2579 29.0528C56.2328 29.0777 56.2035 29.0902 56.17 29.0902H53.6092L53.5715 28.8529H56.101L56.0382 28.9091V28.7968C56.0173 28.5761 55.9461 28.3909 55.8248 28.241C55.7076 28.0912 55.5654 27.9788 55.398 27.9038C55.2306 27.8247 55.057 27.7852 54.877 27.7852C54.7515 27.7852 54.6197 27.8143 54.4816 27.8726C54.3435 27.9267 54.2159 28.0121 54.0987 28.1286C53.9816 28.241 53.8853 28.3846 53.81 28.5595C53.7389 28.7343 53.7033 28.9383 53.7033 29.1714C53.7033 29.4253 53.7535 29.6584 53.854 29.8707C53.9586 30.083 54.1113 30.2537 54.3121 30.3828C54.5172 30.5118 54.7682 30.5763 55.0653 30.5763C55.2076 30.5763 55.3415 30.5534 55.467 30.5076C55.5926 30.4577 55.7055 30.3932 55.806 30.3141C55.9064 30.235 55.988 30.1497 56.0507 30.0581C56.0842 30.0206 56.1198 30.0019 56.1574 30.0019C56.1867 30.0019 56.2118 30.0144 56.2328 30.0393C56.2537 30.0602 56.2641 30.0851 56.2641 30.1143C56.2641 30.1434 56.2558 30.1684 56.239 30.1892C56.1093 30.3557 55.9419 30.5014 55.7369 30.6263C55.5361 30.7512 55.3122 30.8136 55.0653 30.8136Z" fill="black"/>
<path d="M58.1262 27.5354C58.3898 27.5354 58.6032 27.5875 58.7664 27.6915C58.9337 27.7956 59.0551 27.9371 59.1304 28.1161C59.2099 28.2951 59.2497 28.495 59.2497 28.7156V30.6263C59.2497 30.6596 59.2371 30.6887 59.212 30.7137C59.1869 30.7387 59.1576 30.7512 59.1241 30.7512C59.0865 30.7512 59.0551 30.7387 59.03 30.7137C59.0091 30.6887 58.9986 30.6596 58.9986 30.6263V28.7406C58.9986 28.5616 58.9672 28.3992 58.9045 28.2535C58.8459 28.1078 58.7496 27.9913 58.6157 27.9038C58.486 27.8164 58.3145 27.7727 58.1011 27.7727C57.9169 27.7727 57.737 27.8164 57.5613 27.9038C57.3855 27.9913 57.2391 28.1078 57.1219 28.2535C57.0089 28.3992 56.9524 28.5616 56.9524 28.7406V30.6263C56.9524 30.6596 56.9399 30.6887 56.9148 30.7137C56.8897 30.7387 56.8604 30.7512 56.8269 30.7512C56.7893 30.7512 56.7579 30.7387 56.7328 30.7137C56.7118 30.6887 56.7014 30.6596 56.7014 30.6263V27.7602C56.7014 27.7269 56.7139 27.6978 56.7391 27.6728C56.7642 27.6478 56.7934 27.6353 56.8269 27.6353C56.8646 27.6353 56.8939 27.6478 56.9148 27.6728C56.9399 27.6978 56.9524 27.7269 56.9524 27.7602V28.3721L56.7955 28.6719C56.7955 28.522 56.8353 28.3784 56.9148 28.241C56.9943 28.1037 57.0989 27.9829 57.2286 27.8789C57.3583 27.7706 57.5006 27.6874 57.6554 27.6291C57.8144 27.5667 57.9713 27.5354 58.1262 27.5354Z" fill="black"/>
<path d="M61.241 27.5354C61.4293 27.5354 61.605 27.5562 61.7682 27.5979C61.9356 27.6395 62.0695 27.6957 62.1699 27.7665C62.2745 27.8331 62.3268 27.9038 62.3268 27.9788C62.3268 28.0079 62.3143 28.037 62.2892 28.0662C62.2682 28.0912 62.2411 28.1037 62.2076 28.1037C62.1615 28.1037 62.1239 28.0912 62.0946 28.0662C62.0695 28.0412 62.0423 28.0121 62.013 27.9788C61.9837 27.9413 61.9377 27.908 61.8749 27.8789C61.8163 27.8497 61.7327 27.8247 61.6239 27.8039C61.5192 27.7831 61.3895 27.7727 61.2347 27.7727C60.992 27.7727 60.7702 27.8352 60.5694 27.96C60.3686 28.0849 60.2075 28.2535 60.0861 28.4658C59.9689 28.674 59.9104 28.9091 59.9104 29.1714C59.9104 29.4378 59.9648 29.6772 60.0736 29.8895C60.1865 30.1018 60.3414 30.2704 60.538 30.3953C60.7389 30.516 60.9711 30.5763 61.2347 30.5763C61.423 30.5763 61.5653 30.5597 61.6615 30.5264C61.7619 30.4889 61.8477 30.4494 61.9189 30.4077C62.0067 30.3578 62.0674 30.3099 62.1009 30.2641C62.1343 30.2183 62.1741 30.1954 62.2201 30.1954C62.2536 30.1954 62.2787 30.2058 62.2954 30.2267C62.3164 30.2475 62.3268 30.2745 62.3268 30.3078C62.3268 30.3578 62.2808 30.4244 62.1887 30.5076C62.0967 30.5867 61.967 30.6575 61.7996 30.7199C61.6364 30.7824 61.4418 30.8136 61.2159 30.8136C60.9104 30.8136 60.6405 30.7428 60.4062 30.6013C60.1719 30.4556 59.9878 30.26 59.8539 30.0144C59.7242 29.7646 59.6593 29.4836 59.6593 29.1714C59.6593 28.88 59.7242 28.6115 59.8539 28.3659C59.9878 28.1161 60.1719 27.9163 60.4062 27.7665C60.6447 27.6124 60.923 27.5354 61.241 27.5354Z" fill="black"/>
<path d="M64.0692 30.8136C63.7554 30.8136 63.4771 30.747 63.2344 30.6138C62.9959 30.4806 62.8076 30.2933 62.6695 30.0518C62.5315 29.8062 62.4624 29.519 62.4624 29.1901C62.4624 28.8405 62.5294 28.5428 62.6633 28.2972C62.8013 28.0516 62.9771 27.8643 63.1905 27.7352C63.4081 27.602 63.6382 27.5354 63.8809 27.5354C64.0567 27.5354 64.2282 27.5646 64.3956 27.6229C64.563 27.677 64.7115 27.7644 64.8412 27.8851C64.9751 28.0017 65.0818 28.1494 65.1613 28.3284C65.245 28.5033 65.291 28.7135 65.2994 28.9591C65.2994 28.9924 65.2869 29.0236 65.2617 29.0528C65.2366 29.0777 65.2074 29.0902 65.1739 29.0902H62.6131L62.5754 28.8529H65.1048L65.0421 28.9091V28.7968C65.0211 28.5761 64.95 28.3909 64.8287 28.241C64.7115 28.0912 64.5692 27.9788 64.4019 27.9038C64.2345 27.8247 64.0608 27.7852 63.8809 27.7852C63.7554 27.7852 63.6236 27.8143 63.4855 27.8726C63.3474 27.9267 63.2198 28.0121 63.1026 28.1286C62.9855 28.241 62.8892 28.3846 62.8139 28.5595C62.7428 28.7343 62.7072 28.9383 62.7072 29.1714C62.7072 29.4253 62.7574 29.6584 62.8578 29.8707C62.9624 30.083 63.1152 30.2537 63.316 30.3828C63.5211 30.5118 63.7721 30.5763 64.0692 30.5763C64.2115 30.5763 64.3454 30.5534 64.4709 30.5076C64.5964 30.4577 64.7094 30.3932 64.8098 30.3141C64.9103 30.235 64.9919 30.1497 65.0546 30.0581C65.0881 30.0206 65.1237 30.0019 65.1613 30.0019C65.1906 30.0019 65.2157 30.0144 65.2366 30.0393C65.2576 30.0602 65.268 30.0851 65.268 30.1143C65.268 30.1434 65.2597 30.1684 65.2429 30.1892C65.1132 30.3557 64.9458 30.5014 64.7408 30.6263C64.5399 30.7512 64.3161 30.8136 64.0692 30.8136Z" fill="black"/>
<path d="M70.9407 26.3803C70.9616 26.3803 70.9825 26.3844 71.0034 26.3928C71.0244 26.4011 71.0432 26.4157 71.0599 26.4365L72.8613 29.1027H72.7358L74.5371 26.4365C74.5706 26.3907 74.6104 26.3719 74.6564 26.3803C74.6899 26.3844 74.7171 26.399 74.738 26.424C74.7589 26.4448 74.7694 26.4718 74.7694 26.5052V30.6263C74.7694 30.6596 74.7547 30.6887 74.7254 30.7137C74.7003 30.7387 74.671 30.7512 74.6376 30.7512C74.5999 30.7512 74.5685 30.7387 74.5434 30.7137C74.5183 30.6887 74.5058 30.6596 74.5058 30.6263V26.7861H74.5748L72.8864 29.3275C72.878 29.3442 72.8655 29.3566 72.8488 29.365C72.8362 29.3733 72.8195 29.3775 72.7985 29.3775C72.7776 29.3775 72.7567 29.3733 72.7358 29.365C72.719 29.3566 72.7065 29.3442 72.6981 29.3275L70.9721 26.7362H71.0725V30.6263C71.0725 30.6596 71.0599 30.6887 71.0348 30.7137C71.0097 30.7387 70.9804 30.7512 70.947 30.7512C70.9093 30.7512 70.8779 30.7387 70.8528 30.7137C70.8319 30.6887 70.8214 30.6596 70.8214 30.6263V26.5052C70.8214 26.476 70.8319 26.449 70.8528 26.424C70.8737 26.3948 70.903 26.3803 70.9407 26.3803Z" fill="black"/>
<path d="M78.0715 27.6353C78.1091 27.6353 78.1384 27.6478 78.1593 27.6728C78.1844 27.6978 78.197 27.7269 78.197 27.7602V30.6263C78.197 30.6596 78.1844 30.6887 78.1593 30.7137C78.1342 30.7387 78.1049 30.7512 78.0715 30.7512C78.0338 30.7512 78.0024 30.7387 77.9773 30.7137C77.9564 30.6887 77.9459 30.6596 77.9459 30.6263V29.7396L78.0464 29.6584C78.0464 29.7917 78.0129 29.9269 77.9459 30.0643C77.879 30.2017 77.7869 30.3266 77.6698 30.439C77.5526 30.5514 77.4145 30.6429 77.2555 30.7137C77.0965 30.7803 76.9249 30.8136 76.7408 30.8136C76.4605 30.8136 76.2094 30.7408 75.9877 30.5951C75.7701 30.4494 75.5985 30.2516 75.473 30.0019C75.3475 29.7521 75.2847 29.4711 75.2847 29.1589C75.2847 28.8425 75.3475 28.5636 75.473 28.3222C75.6027 28.0766 75.7763 27.8851 75.9939 27.7477C76.2157 27.6062 76.4647 27.5354 76.7408 27.5354C76.9208 27.5354 77.0902 27.5687 77.2492 27.6353C77.4082 27.6978 77.5463 27.7873 77.6635 27.9038C77.7848 28.0204 77.879 28.1578 77.9459 28.316C78.0129 28.47 78.0464 28.6386 78.0464 28.8217L77.9459 28.6656V27.7602C77.9459 27.7269 77.9564 27.6978 77.9773 27.6728C78.0024 27.6478 78.0338 27.6353 78.0715 27.6353ZM76.7534 30.5763C76.9877 30.5763 77.1969 30.516 77.381 30.3953C77.5652 30.2704 77.7095 30.1018 77.8141 29.8895C77.9187 29.673 77.971 29.4295 77.971 29.1589C77.971 28.9008 77.9187 28.6677 77.8141 28.4596C77.7095 28.2473 77.5652 28.0808 77.381 27.96C77.1969 27.8352 76.9877 27.7727 76.7534 27.7727C76.5233 27.7727 76.3161 27.8331 76.132 27.9538C75.9479 28.0704 75.8014 28.2327 75.6927 28.4408C75.588 28.649 75.5357 28.8883 75.5357 29.1589C75.5357 29.4295 75.588 29.673 75.6927 29.8895C75.7973 30.1018 75.9416 30.2704 76.1257 30.3953C76.3099 30.516 76.5191 30.5763 76.7534 30.5763Z" fill="black"/>
<path d="M80.1843 27.5354C80.3727 27.5354 80.5484 27.5562 80.7116 27.5979C80.879 27.6395 81.0129 27.6957 81.1133 27.7665C81.2179 27.8331 81.2702 27.9038 81.2702 27.9788C81.2702 28.0079 81.2576 28.037 81.2325 28.0662C81.2116 28.0912 81.1844 28.1037 81.1509 28.1037C81.1049 28.1037 81.0672 28.0912 81.038 28.0662C81.0128 28.0412 80.9857 28.0121 80.9564 27.9788C80.9271 27.9413 80.8811 27.908 80.8183 27.8789C80.7597 27.8497 80.676 27.8247 80.5672 27.8039C80.4626 27.7831 80.3329 27.7727 80.1781 27.7727C79.9354 27.7727 79.7136 27.8352 79.5128 27.96C79.3119 28.0849 79.1508 28.2535 79.0295 28.4658C78.9123 28.674 78.8537 28.9091 78.8537 29.1714C78.8537 29.4378 78.9081 29.6772 79.0169 29.8895C79.1299 30.1018 79.2847 30.2704 79.4814 30.3953C79.6822 30.516 79.9145 30.5763 80.1781 30.5763C80.3664 30.5763 80.5086 30.5597 80.6049 30.5264C80.7053 30.4889 80.7911 30.4494 80.8622 30.4077C80.9501 30.3578 81.0108 30.3099 81.0442 30.2641C81.0777 30.2183 81.1175 30.1954 81.1635 30.1954C81.197 30.1954 81.2221 30.2058 81.2388 30.2267C81.2597 30.2475 81.2702 30.2745 81.2702 30.3078C81.2702 30.3578 81.2242 30.4244 81.1321 30.5076C81.0401 30.5867 80.9103 30.6575 80.743 30.7199C80.5798 30.7824 80.3852 30.8136 80.1592 30.8136C79.8538 30.8136 79.5839 30.7428 79.3496 30.6013C79.1152 30.4556 78.9311 30.26 78.7972 30.0144C78.6675 29.7646 78.6027 29.4836 78.6027 29.1714C78.6027 28.88 78.6675 28.6115 78.7972 28.3659C78.9311 28.1161 79.1152 27.9163 79.3496 27.7665C79.5881 27.6124 79.8663 27.5354 80.1843 27.5354Z" fill="black"/>
<path d="M82.9686 27.5979C83.2197 27.5979 83.4268 27.652 83.59 27.7602C83.7574 27.8685 83.8808 28.0142 83.9603 28.1973C84.044 28.3805 84.0859 28.5824 84.0859 28.803V30.6263C84.0859 30.6596 84.0733 30.6887 84.0482 30.7137C84.0231 30.7387 83.9938 30.7512 83.9603 30.7512C83.9227 30.7512 83.8913 30.7387 83.8662 30.7137C83.8452 30.6887 83.8348 30.6596 83.8348 30.6263V28.803C83.8348 28.624 83.8055 28.4616 83.7469 28.316C83.6883 28.1703 83.5963 28.0537 83.4708 27.9663C83.3452 27.8789 83.1778 27.8352 82.9686 27.8352C82.7887 27.8352 82.613 27.8789 82.4414 27.9663C82.2698 28.0537 82.1276 28.1703 82.0146 28.316C81.9058 28.4616 81.8514 28.624 81.8514 28.803V30.6263C81.8514 30.6596 81.8389 30.6887 81.8138 30.7137C81.7886 30.7387 81.7594 30.7512 81.7259 30.7512C81.6882 30.7512 81.6568 30.7387 81.6317 30.7137C81.6108 30.6887 81.6003 30.6596 81.6003 30.6263V26.2554C81.6003 26.2221 81.6129 26.1929 81.638 26.168C81.6631 26.143 81.6924 26.1305 81.7259 26.1305C81.7635 26.1305 81.7928 26.143 81.8138 26.168C81.8389 26.1929 81.8514 26.2221 81.8514 26.2554V28.4346L81.6945 28.7343C81.6945 28.5845 81.7321 28.4408 81.8075 28.3035C81.8828 28.1661 81.9811 28.0454 82.1025 27.9413C82.228 27.8331 82.3661 27.7498 82.5167 27.6915C82.6674 27.6291 82.818 27.5979 82.9686 27.5979Z" fill="black"/>
<path d="M84.9365 30.6263C84.9365 30.6596 84.9239 30.6887 84.8988 30.7137C84.8737 30.7387 84.8444 30.7512 84.8109 30.7512C84.7733 30.7512 84.7419 30.7387 84.7168 30.7137C84.6959 30.6887 84.6854 30.6596 84.6854 30.6263V27.6603C84.6854 27.627 84.698 27.5979 84.7231 27.5729C84.7482 27.5479 84.7775 27.5354 84.8109 27.5354C84.8486 27.5354 84.8779 27.5479 84.8988 27.5729C84.9239 27.5979 84.9365 27.627 84.9365 27.6603V30.6263ZM84.8109 27.1108C84.744 27.1108 84.6896 27.0921 84.6478 27.0546C84.6101 27.0172 84.5913 26.9693 84.5913 26.911V26.8611C84.5913 26.8028 84.6122 26.7549 84.654 26.7174C84.6959 26.68 84.7503 26.6613 84.8172 26.6613C84.8758 26.6613 84.9239 26.68 84.9616 26.7174C85.0034 26.7549 85.0243 26.8028 85.0243 26.8611V26.911C85.0243 26.9693 85.0034 27.0172 84.9616 27.0546C84.9239 27.0921 84.8737 27.1108 84.8109 27.1108Z" fill="black"/>
<path d="M86.9641 27.5354C87.2278 27.5354 87.4412 27.5875 87.6043 27.6915C87.7717 27.7956 87.8931 27.9371 87.9684 28.1161C88.0479 28.2951 88.0876 28.495 88.0876 28.7156V30.6263C88.0876 30.6596 88.0751 30.6887 88.05 30.7137C88.0249 30.7387 87.9956 30.7512 87.9621 30.7512C87.9244 30.7512 87.8931 30.7387 87.868 30.7137C87.847 30.6887 87.8366 30.6596 87.8366 30.6263V28.7406C87.8366 28.5616 87.8052 28.3992 87.7424 28.2535C87.6838 28.1078 87.5876 27.9913 87.4537 27.9038C87.324 27.8164 87.1524 27.7727 86.939 27.7727C86.7549 27.7727 86.575 27.8164 86.3993 27.9038C86.2235 27.9913 86.077 28.1078 85.9599 28.2535C85.8469 28.3992 85.7904 28.5616 85.7904 28.7406V30.6263C85.7904 30.6596 85.7779 30.6887 85.7528 30.7137C85.7277 30.7387 85.6984 30.7512 85.6649 30.7512C85.6272 30.7512 85.5958 30.7387 85.5707 30.7137C85.5498 30.6887 85.5394 30.6596 85.5394 30.6263V27.7602C85.5394 27.7269 85.5519 27.6978 85.577 27.6728C85.6021 27.6478 85.6314 27.6353 85.6649 27.6353C85.7026 27.6353 85.7318 27.6478 85.7528 27.6728C85.7779 27.6978 85.7904 27.7269 85.7904 27.7602V28.3721L85.6335 28.6719C85.6335 28.522 85.6733 28.3784 85.7528 28.241C85.8323 28.1037 85.9369 27.9829 86.0666 27.8789C86.1963 27.7706 86.3386 27.6874 86.4934 27.6291C86.6524 27.5667 86.8093 27.5354 86.9641 27.5354Z" fill="black"/>
<path d="M90.1041 30.8136C89.7902 30.8136 89.512 30.747 89.2693 30.6138C89.0308 30.4806 88.8425 30.2933 88.7044 30.0518C88.5663 29.8062 88.4973 29.519 88.4973 29.1901C88.4973 28.8405 88.5642 28.5428 88.6981 28.2972C88.8362 28.0516 89.0119 27.8643 89.2253 27.7352C89.4429 27.602 89.6731 27.5354 89.9158 27.5354C90.0915 27.5354 90.2631 27.5646 90.4305 27.6229C90.5978 27.677 90.7464 27.7644 90.8761 27.8851C91.01 28.0017 91.1167 28.1494 91.1962 28.3284C91.2799 28.5033 91.3259 28.7135 91.3343 28.9591C91.3343 28.9924 91.3217 29.0236 91.2966 29.0528C91.2715 29.0777 91.2422 29.0902 91.2087 29.0902H88.6479L88.6103 28.8529H91.1397L91.0769 28.9091V28.7968C91.056 28.5761 90.9849 28.3909 90.8635 28.241C90.7464 28.0912 90.6041 27.9788 90.4367 27.9038C90.2693 27.8247 90.0957 27.7852 89.9158 27.7852C89.7902 27.7852 89.6584 27.8143 89.5203 27.8726C89.3823 27.9267 89.2546 28.0121 89.1375 28.1286C89.0203 28.241 88.9241 28.3846 88.8488 28.5595C88.7776 28.7343 88.7421 28.9383 88.7421 29.1714C88.7421 29.4253 88.7923 29.6584 88.8927 29.8707C88.9973 30.083 89.15 30.2537 89.3509 30.3828C89.5559 30.5118 89.807 30.5763 90.1041 30.5763C90.2463 30.5763 90.3802 30.5534 90.5058 30.5076C90.6313 30.4577 90.7443 30.3932 90.8447 30.3141C90.9451 30.235 91.0267 30.1497 91.0895 30.0581C91.123 30.0206 91.1585 30.0019 91.1962 30.0019C91.2255 30.0019 91.2506 30.0144 91.2715 30.0393C91.2924 30.0602 91.3029 30.0851 91.3029 30.1143C91.3029 30.1434 91.2945 30.1684 91.2778 30.1892C91.1481 30.3557 90.9807 30.5014 90.7757 30.6263C90.5748 30.7512 90.3509 30.8136 90.1041 30.8136Z" fill="black"/>
<path d="M95.5282 30.5014C95.5617 30.5014 95.591 30.5139 95.6161 30.5389C95.6412 30.5638 95.6537 30.593 95.6537 30.6263C95.6537 30.6638 95.6412 30.695 95.6161 30.7199C95.591 30.7408 95.5617 30.7512 95.5282 30.7512H93.2247C93.1871 30.7512 93.1557 30.7387 93.1306 30.7137C93.1097 30.6887 93.0992 30.6596 93.0992 30.6263V26.5052C93.0992 26.4718 93.1118 26.4427 93.1369 26.4177C93.162 26.3928 93.1933 26.3803 93.231 26.3803C93.2687 26.3803 93.3 26.3928 93.3251 26.4177C93.3503 26.4427 93.3628 26.4718 93.3628 26.5052V30.6138L93.2498 30.5014H95.5282Z" fill="black"/>
<path d="M97.2446 30.8136C96.9308 30.8136 96.6525 30.747 96.4098 30.6138C96.1713 30.4806 95.983 30.2933 95.8449 30.0518C95.7069 29.8062 95.6378 29.519 95.6378 29.1901C95.6378 28.8405 95.7048 28.5428 95.8387 28.2972C95.9767 28.0516 96.1525 27.8643 96.3659 27.7352C96.5835 27.602 96.8136 27.5354 97.0563 27.5354C97.2321 27.5354 97.4036 27.5646 97.571 27.6229C97.7384 27.677 97.8869 27.7644 98.0166 27.8851C98.1505 28.0017 98.2572 28.1494 98.3367 28.3284C98.4204 28.5033 98.4664 28.7135 98.4748 28.9591C98.4748 28.9924 98.4623 29.0236 98.4371 29.0528C98.412 29.0777 98.3828 29.0902 98.3493 29.0902H95.7885L95.7508 28.8529H98.2802L98.2175 28.9091V28.7968C98.1965 28.5761 98.1254 28.3909 98.0041 28.241C97.8869 28.0912 97.7446 27.9788 97.5773 27.9038C97.4099 27.8247 97.2362 27.7852 97.0563 27.7852C96.9308 27.7852 96.799 27.8143 96.6609 27.8726C96.5228 27.9267 96.3952 28.0121 96.278 28.1286C96.1609 28.241 96.0646 28.3846 95.9893 28.5595C95.9182 28.7343 95.8826 28.9383 95.8826 29.1714C95.8826 29.4253 95.9328 29.6584 96.0332 29.8707C96.1378 30.083 96.2906 30.2537 96.4914 30.3828C96.6964 30.5118 96.9475 30.5763 97.2446 30.5763C97.3869 30.5763 97.5208 30.5534 97.6463 30.5076C97.7718 30.4577 97.8848 30.3932 97.9852 30.3141C98.0857 30.235 98.1673 30.1497 98.23 30.0581C98.2635 30.0206 98.2991 30.0019 98.3367 30.0019C98.366 30.0019 98.3911 30.0144 98.412 30.0393C98.433 30.0602 98.4434 30.0851 98.4434 30.1143C98.4434 30.1434 98.4351 30.1684 98.4183 30.1892C98.2886 30.3557 98.1212 30.5014 97.9162 30.6263C97.7153 30.7512 97.4915 30.8136 97.2446 30.8136Z" fill="black"/>
<path d="M101.497 27.6353C101.535 27.6353 101.564 27.6478 101.585 27.6728C101.61 27.6978 101.623 27.7269 101.623 27.7602V30.6263C101.623 30.6596 101.61 30.6887 101.585 30.7137C101.56 30.7387 101.531 30.7512 101.497 30.7512C101.46 30.7512 101.428 30.7387 101.403 30.7137C101.382 30.6887 101.372 30.6596 101.372 30.6263V29.7396L101.472 29.6584C101.472 29.7917 101.439 29.9269 101.372 30.0643C101.305 30.2017 101.213 30.3266 101.096 30.439C100.979 30.5514 100.84 30.6429 100.681 30.7137C100.522 30.7803 100.351 30.8136 100.167 30.8136C99.8864 30.8136 99.6354 30.7408 99.4136 30.5951C99.196 30.4494 99.0244 30.2516 98.8989 30.0019C98.7734 29.7521 98.7106 29.4711 98.7106 29.1589C98.7106 28.8425 98.7734 28.5636 98.8989 28.3222C99.0286 28.0766 99.2023 27.8851 99.4199 27.7477C99.6416 27.6062 99.8906 27.5354 100.167 27.5354C100.347 27.5354 100.516 27.5687 100.675 27.6353C100.834 27.6978 100.972 27.7873 101.089 27.9038C101.211 28.0204 101.305 28.1578 101.372 28.316C101.439 28.47 101.472 28.6386 101.472 28.8217L101.372 28.6656V27.7602C101.372 27.7269 101.382 27.6978 101.403 27.6728C101.428 27.6478 101.46 27.6353 101.497 27.6353ZM100.179 30.5763C100.414 30.5763 100.623 30.516 100.807 30.3953C100.991 30.2704 101.135 30.1018 101.24 29.8895C101.345 29.673 101.397 29.4295 101.397 29.1589C101.397 28.9008 101.345 28.6677 101.24 28.4596C101.135 28.2473 100.991 28.0808 100.807 27.96C100.623 27.8352 100.414 27.7727 100.179 27.7727C99.9492 27.7727 99.7421 27.8331 99.558 27.9538C99.3738 28.0704 99.2274 28.2327 99.1186 28.4408C99.014 28.649 98.9617 28.8883 98.9617 29.1589C98.9617 29.4295 99.014 29.673 99.1186 29.8895C99.2232 30.1018 99.3676 30.2704 99.5517 30.3953C99.7358 30.516 99.945 30.5763 100.179 30.5763Z" fill="black"/>
<path d="M102.349 30.7512C102.311 30.7512 102.28 30.7387 102.255 30.7137C102.234 30.6887 102.223 30.6596 102.223 30.6263V27.7602C102.223 27.7269 102.236 27.6978 102.261 27.6728C102.286 27.6478 102.315 27.6353 102.349 27.6353C102.386 27.6353 102.416 27.6478 102.437 27.6728C102.462 27.6978 102.474 27.7269 102.474 27.7602V28.8155L102.368 28.9778C102.368 28.8155 102.395 28.6511 102.449 28.4845C102.508 28.318 102.591 28.164 102.7 28.0225C102.809 27.8768 102.941 27.7602 103.096 27.6728C103.255 27.5812 103.437 27.5354 103.642 27.5354C103.7 27.5354 103.763 27.5438 103.83 27.5604C103.897 27.5771 103.93 27.6166 103.93 27.679C103.93 27.7165 103.92 27.7477 103.899 27.7727C103.878 27.7977 103.851 27.8102 103.817 27.8102C103.792 27.8102 103.761 27.8019 103.723 27.7852C103.69 27.7644 103.64 27.754 103.573 27.754C103.439 27.754 103.307 27.7935 103.177 27.8726C103.047 27.9517 102.928 28.0579 102.819 28.1911C102.715 28.3201 102.631 28.4616 102.568 28.6157C102.506 28.7697 102.474 28.9196 102.474 29.0653V30.6263C102.474 30.6596 102.462 30.6887 102.437 30.7137C102.411 30.7387 102.382 30.7512 102.349 30.7512Z" fill="black"/>
<path d="M105.519 27.5354C105.783 27.5354 105.996 27.5875 106.16 27.6915C106.327 27.7956 106.448 27.9371 106.524 28.1161C106.603 28.2951 106.643 28.495 106.643 28.7156V30.6263C106.643 30.6596 106.63 30.6887 106.605 30.7137C106.58 30.7387 106.551 30.7512 106.517 30.7512C106.48 30.7512 106.448 30.7387 106.423 30.7137C106.402 30.6887 106.392 30.6596 106.392 30.6263V28.7406C106.392 28.5616 106.36 28.3992 106.298 28.2535C106.239 28.1078 106.143 27.9913 106.009 27.9038C105.879 27.8164 105.708 27.7727 105.494 27.7727C105.31 27.7727 105.13 27.8164 104.954 27.9038C104.779 27.9913 104.632 28.1078 104.515 28.2535C104.402 28.3992 104.346 28.5616 104.346 28.7406V30.6263C104.346 30.6596 104.333 30.6887 104.308 30.7137C104.283 30.7387 104.254 30.7512 104.22 30.7512C104.182 30.7512 104.151 30.7387 104.126 30.7137C104.105 30.6887 104.095 30.6596 104.095 30.6263V27.7602C104.095 27.7269 104.107 27.6978 104.132 27.6728C104.157 27.6478 104.187 27.6353 104.22 27.6353C104.258 27.6353 104.287 27.6478 104.308 27.6728C104.333 27.6978 104.346 27.7269 104.346 27.7602V28.3721L104.189 28.6719C104.189 28.522 104.229 28.3784 104.308 28.241C104.388 28.1037 104.492 27.9829 104.622 27.8789C104.752 27.7706 104.894 27.6874 105.049 27.6291C105.208 27.5667 105.365 27.5354 105.519 27.5354Z" fill="black"/>
<path d="M107.498 30.6263C107.498 30.6596 107.486 30.6887 107.46 30.7137C107.435 30.7387 107.406 30.7512 107.373 30.7512C107.335 30.7512 107.304 30.7387 107.278 30.7137C107.258 30.6887 107.247 30.6596 107.247 30.6263V27.6603C107.247 27.627 107.26 27.5979 107.285 27.5729C107.31 27.5479 107.339 27.5354 107.373 27.5354C107.41 27.5354 107.44 27.5479 107.46 27.5729C107.486 27.5979 107.498 27.627 107.498 27.6603V30.6263ZM107.373 27.1108C107.306 27.1108 107.251 27.0921 107.209 27.0546C107.172 27.0172 107.153 26.9693 107.153 26.911V26.8611C107.153 26.8028 107.174 26.7549 107.216 26.7174C107.258 26.68 107.312 26.6613 107.379 26.6613C107.437 26.6613 107.486 26.68 107.523 26.7174C107.565 26.7549 107.586 26.8028 107.586 26.8611V26.911C107.586 26.9693 107.565 27.0172 107.523 27.0546C107.486 27.0921 107.435 27.1108 107.373 27.1108Z" fill="black"/>
<path d="M109.526 27.5354C109.789 27.5354 110.003 27.5875 110.166 27.6915C110.333 27.7956 110.455 27.9371 110.53 28.1161C110.61 28.2951 110.649 28.495 110.649 28.7156V30.6263C110.649 30.6596 110.637 30.6887 110.612 30.7137C110.587 30.7387 110.557 30.7512 110.524 30.7512C110.486 30.7512 110.455 30.7387 110.43 30.7137C110.409 30.6887 110.398 30.6596 110.398 30.6263V28.7406C110.398 28.5616 110.367 28.3992 110.304 28.2535C110.246 28.1078 110.149 27.9913 110.015 27.9038C109.886 27.8164 109.714 27.7727 109.501 27.7727C109.317 27.7727 109.137 27.8164 108.961 27.9038C108.785 27.9913 108.639 28.1078 108.522 28.2535C108.409 28.3992 108.352 28.5616 108.352 28.7406V30.6263C108.352 30.6596 108.34 30.6887 108.314 30.7137C108.289 30.7387 108.26 30.7512 108.227 30.7512C108.189 30.7512 108.158 30.7387 108.132 30.7137C108.112 30.6887 108.101 30.6596 108.101 30.6263V27.7602C108.101 27.7269 108.114 27.6978 108.139 27.6728C108.164 27.6478 108.193 27.6353 108.227 27.6353C108.264 27.6353 108.294 27.6478 108.314 27.6728C108.34 27.6978 108.352 27.7269 108.352 27.7602V28.3721L108.195 28.6719C108.195 28.522 108.235 28.3784 108.314 28.241C108.394 28.1037 108.499 27.9829 108.628 27.8789C108.758 27.7706 108.9 27.6874 109.055 27.6291C109.214 27.5667 109.371 27.5354 109.526 27.5354Z" fill="black"/>
<path d="M112.578 27.5354C112.766 27.5354 112.942 27.5687 113.105 27.6353C113.268 27.7019 113.411 27.7894 113.532 27.8976C113.657 28.0058 113.754 28.1224 113.821 28.2473C113.892 28.3721 113.927 28.495 113.927 28.6157L113.846 28.3846V27.7602C113.846 27.7269 113.856 27.6978 113.877 27.6728C113.902 27.6478 113.934 27.6353 113.971 27.6353C114.009 27.6353 114.038 27.6478 114.059 27.6728C114.084 27.6978 114.097 27.7269 114.097 27.7602V30.4452C114.097 30.7657 114.03 31.0426 113.896 31.2757C113.766 31.5088 113.586 31.6878 113.356 31.8127C113.126 31.9376 112.858 32 112.553 32C112.385 32 112.216 31.9771 112.044 31.9313C111.877 31.8897 111.737 31.8356 111.624 31.769C111.511 31.7024 111.454 31.6316 111.454 31.5567C111.454 31.5234 111.463 31.4963 111.479 31.4755C111.5 31.4547 111.528 31.4443 111.561 31.4443C111.603 31.4443 111.641 31.4672 111.674 31.513C111.712 31.5587 111.777 31.6004 111.869 31.6378C111.906 31.6503 111.957 31.667 112.019 31.6878C112.086 31.7086 112.166 31.7253 112.258 31.7377C112.35 31.7544 112.452 31.7627 112.565 31.7627C112.963 31.7627 113.275 31.6399 113.501 31.3943C113.731 31.1529 113.846 30.8365 113.846 30.4452V29.827L113.909 29.8333C113.858 30.0123 113.785 30.1642 113.689 30.2891C113.593 30.414 113.482 30.516 113.356 30.5951C113.235 30.67 113.105 30.7241 112.967 30.7574C112.833 30.7949 112.703 30.8136 112.578 30.8136C112.289 30.8136 112.03 30.7428 111.8 30.6013C111.574 30.4556 111.394 30.26 111.26 30.0144C111.126 29.7646 111.059 29.4836 111.059 29.1714C111.059 28.8592 111.126 28.5803 111.26 28.3347C111.394 28.0849 111.574 27.8893 111.8 27.7477C112.03 27.6062 112.289 27.5354 112.578 27.5354ZM112.59 27.7727C112.348 27.7727 112.128 27.8331 111.931 27.9538C111.739 28.0745 111.586 28.241 111.473 28.4533C111.364 28.6615 111.31 28.9008 111.31 29.1714C111.31 29.4378 111.364 29.6772 111.473 29.8895C111.586 30.1018 111.739 30.2704 111.931 30.3953C112.128 30.516 112.348 30.5763 112.59 30.5763C112.833 30.5763 113.051 30.5181 113.243 30.4015C113.436 30.2808 113.588 30.1163 113.701 29.9082C113.814 29.6959 113.871 29.4503 113.871 29.1714C113.871 28.8925 113.814 28.649 113.701 28.4408C113.588 28.2285 113.436 28.0641 113.243 27.9475C113.051 27.831 112.833 27.7727 112.59 27.7727Z" fill="black"/>
<path d="M8.25301 31.9251C7.3266 31.9251 6.37194 31.8464 5.38903 31.689C4.40613 31.5429 3.46841 31.2676 2.57589 30.8629C1.69466 30.4583 0.937714 29.8739 0.30504 29.1096L3.74521 25.4849C4.02765 25.7996 4.36094 26.0918 4.74506 26.3615C5.12918 26.6425 5.58674 26.8673 6.11774 27.0359C6.64873 27.2157 7.27011 27.3056 7.98187 27.3056C8.62584 27.3056 9.20203 27.2101 9.71042 27.019C10.2188 26.828 10.6142 26.5245 10.8967 26.1086C11.1904 25.704 11.3373 25.1814 11.3373 24.5407V24.2373H17.2347V24.8779C17.2347 26.429 16.8337 27.7271 16.0315 28.7724C15.2407 29.8177 14.1674 30.6044 12.8117 31.1327C11.4559 31.6609 9.93638 31.9251 8.25301 31.9251ZM11.3373 24.507V22.4333C11.2243 22.6469 10.9701 22.956 10.5747 23.3606C10.1793 23.754 9.65394 24.1136 8.99867 24.4396C8.35469 24.7543 7.59774 24.9116 6.72782 24.9116C5.34949 24.9116 4.15758 24.5745 3.15208 23.9001C2.14657 23.2257 1.36703 22.3322 0.813439 21.2195C0.271146 20.1068 0 18.8985 0 17.5948C0 16.291 0.271146 15.0827 0.813439 13.97C1.36703 12.8573 2.14657 11.9638 3.15208 11.2894C4.15758 10.6038 5.34949 10.261 6.72782 10.261C7.55255 10.261 8.26996 10.3846 8.88004 10.6319C9.50142 10.8792 10.0098 11.1714 10.4052 11.5086C10.812 11.8458 11.1 12.1661 11.2695 12.4696V10.6656H17.2347V24.507H11.3373ZM5.88048 17.5948C5.88048 18.0893 5.99911 18.5445 6.23636 18.9603C6.47362 19.365 6.7956 19.6853 7.20232 19.9213C7.60904 20.1574 8.07225 20.2754 8.59195 20.2754C9.11164 20.2754 9.5692 20.1574 9.96462 19.9213C10.3713 19.6853 10.6877 19.365 10.9136 18.9603C11.1509 18.5445 11.2695 18.0893 11.2695 17.5948C11.2695 17.1002 11.1509 16.6506 10.9136 16.246C10.6877 15.8302 10.3713 15.5042 9.96462 15.2682C9.5692 15.0209 9.11164 14.8973 8.59195 14.8973C8.07225 14.8973 7.60904 15.0209 7.20232 15.2682C6.7956 15.5042 6.47362 15.8302 6.23636 16.246C5.99911 16.6506 5.88048 17.1002 5.88048 17.5948Z" fill="black"/>
<path d="M22.866 18.7918C22.9112 19.1627 23.0581 19.4886 23.3067 19.7696C23.5665 20.0393 23.9054 20.2529 24.3235 20.4102C24.7528 20.5564 25.2555 20.6294 25.8317 20.6294C26.3966 20.6294 26.9276 20.5901 27.4247 20.5114C27.9218 20.4215 28.3624 20.3035 28.7465 20.1574C29.142 20.0112 29.4526 19.8483 29.6786 19.6684L31.8986 23.3775C31.6501 23.591 31.2772 23.8158 30.7801 24.0518C30.283 24.2879 29.5995 24.4902 28.7296 24.6588C27.871 24.8273 26.7694 24.9116 25.425 24.9116C23.8659 24.9116 22.465 24.6363 21.2222 24.0855C19.9795 23.5348 18.9966 22.7087 18.2735 21.6072C17.5505 20.4945 17.1889 19.1065 17.1889 17.443C17.1889 16.0943 17.494 14.8804 18.104 13.8014C18.7141 12.7112 19.5953 11.8514 20.7477 11.222C21.9001 10.5813 23.2954 10.261 24.9335 10.261C26.5039 10.261 27.8653 10.5364 29.0177 11.0871C30.17 11.6266 31.0569 12.4471 31.6783 13.5485C32.2997 14.65 32.6104 16.0437 32.6104 17.7296C32.6104 17.8195 32.6047 17.9994 32.5934 18.2691C32.5934 18.5389 32.5821 18.7131 32.5595 18.7918H22.866ZM26.9671 16.0943C26.9558 15.7234 26.8711 15.3918 26.7129 15.0996C26.5661 14.8074 26.3514 14.577 26.069 14.4084C25.7865 14.2398 25.4419 14.1555 25.0352 14.1555C24.6398 14.1555 24.2896 14.2342 23.9845 14.3915C23.6795 14.5489 23.4422 14.7736 23.2728 15.0659C23.1033 15.3469 23.0073 15.6897 22.9847 16.0943H26.9671Z" fill="black"/>
<path d="M42.9423 10.261C43.9478 10.261 44.925 10.4577 45.874 10.8511C46.823 11.2445 47.6026 11.8739 48.2127 12.7393C48.834 13.6047 49.1447 14.7343 49.1447 16.128V24.507H43.1287V17.089C43.1287 16.246 42.9253 15.5997 42.5186 15.1502C42.1119 14.6894 41.5696 14.4589 40.8917 14.4589C40.4511 14.4589 40.0387 14.5713 39.6546 14.7961C39.2705 15.0209 38.9598 15.3356 38.7225 15.7402C38.4966 16.1449 38.3836 16.6169 38.3836 17.1564V24.507H32.3845V10.6656H38.3836V12.537C38.5305 12.1661 38.8186 11.8121 39.2479 11.4749C39.6772 11.1264 40.2138 10.8398 40.8578 10.615C41.5018 10.379 42.1966 10.261 42.9423 10.261Z" fill="black"/>
<path d="M49.5668 24.507V10.6656H55.549V24.507H49.5668ZM52.6341 8.54137C51.719 8.54137 50.9395 8.22104 50.2955 7.58039C49.6628 6.93974 49.3465 6.17546 49.3465 5.28754C49.3465 4.39962 49.6628 3.62972 50.2955 2.97783C50.9395 2.32594 51.719 2 52.6341 2C53.2329 2 53.7809 2.15173 54.278 2.4552C54.7751 2.74742 55.1761 3.14081 55.4812 3.63534C55.7862 4.12988 55.9387 4.68061 55.9387 5.28754C55.9387 6.17546 55.6111 6.93974 54.9558 7.58039C54.3119 8.22104 53.538 8.54137 52.6341 8.54137Z" fill="black"/>
<path d="M62.0536 16.853C62.0536 17.8195 62.223 18.5951 62.562 19.1795C62.9009 19.7527 63.5053 20.0393 64.3753 20.0393C65.2565 20.0393 65.8666 19.7527 66.2055 19.1795C66.5444 18.5951 66.7139 17.8195 66.7139 16.853V10.6656H72.6113V17.4599C72.6113 18.9884 72.2893 20.3147 71.6454 21.4387C71.0014 22.5514 70.0637 23.4112 68.8322 24.0181C67.6121 24.6138 66.1264 24.9116 64.3753 24.9116C62.6354 24.9116 61.1554 24.6138 59.9352 24.0181C58.7151 23.4112 57.7774 22.5514 57.1221 21.4387C56.4781 20.3147 56.1561 18.9884 56.1561 17.4599V10.6656H62.0536V16.853Z" fill="black"/>
<path d="M79.5796 10.261C80.5512 10.261 81.438 10.3397 82.2402 10.497C83.0536 10.6544 83.7258 10.8286 84.2568 11.0197C84.7991 11.1995 85.1381 11.34 85.2736 11.4411L83.3926 14.9141C83.1892 14.768 82.7938 14.577 82.2063 14.3409C81.6301 14.0937 80.9918 13.97 80.2913 13.97C79.8281 13.97 79.444 14.0262 79.1389 14.1386C78.8452 14.2398 78.6983 14.4196 78.6983 14.6781C78.6983 14.9254 78.8735 15.1333 79.2237 15.3019C79.5739 15.4593 80.1049 15.5997 80.8167 15.7234C81.4606 15.847 82.1385 16.0549 82.8503 16.3472C83.562 16.6282 84.1608 17.0609 84.6466 17.6453C85.1437 18.2185 85.3923 18.9884 85.3923 19.955C85.3923 20.9891 85.1663 21.832 84.7144 22.4839C84.2625 23.1246 83.6693 23.6247 82.935 23.9844C82.2119 24.3328 81.4268 24.5745 80.5794 24.7093C79.7434 24.8442 78.9412 24.9116 78.173 24.9116C77.0432 24.9116 76.066 24.8105 75.2412 24.6082C74.4165 24.4171 73.7556 24.1979 73.2585 23.9507C72.7727 23.7034 72.4394 23.5123 72.2586 23.3775L74.1058 19.5167C74.3995 19.7527 74.874 20.0225 75.5293 20.3259C76.1959 20.6294 76.885 20.7811 77.5968 20.7811C78.2295 20.7811 78.704 20.7137 79.0203 20.5788C79.348 20.4327 79.5118 20.236 79.5118 19.9888C79.5118 19.7977 79.4327 19.6403 79.2745 19.5167C79.1164 19.3931 78.8848 19.2807 78.5797 19.1795C78.2747 19.0784 77.8905 18.9828 77.4273 18.8929C77.0093 18.8142 76.5461 18.685 76.0377 18.5051C75.5293 18.3141 75.0435 18.05 74.5803 17.7128C74.1284 17.3756 73.7499 16.9485 73.4449 16.4315C73.1511 15.9032 73.0043 15.2626 73.0043 14.5095C73.0043 13.5429 73.3206 12.7505 73.9533 12.1324C74.586 11.503 75.3994 11.0365 76.3936 10.7331C77.3991 10.4184 78.4611 10.261 79.5796 10.261Z" fill="black"/>
<path d="M102.963 24.507V22.4333C102.85 22.6469 102.596 22.956 102.2 23.3606C101.805 23.754 101.28 24.1136 100.624 24.4396C99.9804 24.7543 99.2234 24.9116 98.3535 24.9116C96.9752 24.9116 95.7833 24.5745 94.7778 23.9001C93.7723 23.2257 92.9927 22.3322 92.4391 21.2195C91.8969 20.1068 91.6257 18.8985 91.6257 17.5948C91.6257 16.291 91.8969 15.0827 92.4391 13.97C92.9927 12.8573 93.7723 11.9638 94.7778 11.2894C95.7833 10.6038 96.9752 10.261 98.3535 10.261C99.1783 10.261 99.8957 10.3846 100.506 10.6319C101.127 10.8792 101.636 11.1714 102.031 11.5086C102.438 11.8458 102.726 12.1661 102.895 12.4696V10.6656H108.86V24.507H102.963ZM97.5062 17.5948C97.5062 18.0893 97.6248 18.5445 97.8621 18.9603C98.0993 19.365 98.4213 19.6853 98.828 19.9213C99.2347 20.1574 99.698 20.2754 100.218 20.2754C100.737 20.2754 101.195 20.1574 101.59 19.9213C101.997 19.6853 102.313 19.365 102.539 18.9603C102.777 18.5445 102.895 18.0893 102.895 17.5948C102.895 17.1002 102.777 16.6506 102.539 16.246C102.313 15.8302 101.997 15.5042 101.59 15.2682C101.195 15.0209 100.737 14.8973 100.218 14.8973C99.698 14.8973 99.2347 15.0209 98.828 15.2682C98.4213 15.5042 98.0993 15.8302 97.8621 16.246C97.6248 16.6506 97.5062 17.1002 97.5062 17.5948Z" fill="black"/>
<path d="M109.628 24.507V10.6656H115.61V24.507H109.628ZM112.695 8.54137C111.78 8.54137 111.001 8.22104 110.357 7.58039C109.724 6.93974 109.408 6.17546 109.408 5.28754C109.408 4.39962 109.724 3.62972 110.357 2.97783C111.001 2.32594 111.78 2 112.695 2C113.294 2 113.842 2.15173 114.339 2.4552C114.836 2.74742 115.237 3.14081 115.542 3.63534C115.847 4.12988 116 4.68061 116 5.28754C116 6.17546 115.672 6.93974 115.017 7.58039C114.373 8.22104 113.599 8.54137 112.695 8.54137Z" fill="black"/>
</svg>
