<svg xmlns="http://www.w3.org/2000/svg" width="24" height="24" viewBox="0 0 24 24" fill="none">
  <path d="M7.05702 2.41805L8.22402 2.06705C8.86331 1.87428 9.5509 1.92068 10.1585 2.19761C10.7661 2.47454 11.2522 2.96308 11.526 3.57205L12.428 5.57805C12.6635 6.10186 12.7291 6.68623 12.6155 7.24919C12.502 7.81215 12.2151 8.32544 11.795 8.71705L10.3 10.1101C10.2563 10.1508 10.2287 10.2057 10.222 10.2651C10.178 10.6621 10.447 11.4351 11.068 12.5101C11.518 13.2911 11.927 13.8401 12.274 14.1471C12.517 14.3621 12.65 14.4081 12.707 14.3921L14.717 13.7771C15.2659 13.6092 15.8536 13.6172 16.3977 13.8001C16.9418 13.9831 17.415 14.3317 17.751 14.7971L19.031 16.5731C19.4207 17.113 19.6012 17.776 19.539 18.439C19.4769 19.102 19.1763 19.7199 18.693 20.1781L17.806 21.0181C17.3358 21.4634 16.7582 21.7793 16.1296 21.9351C15.501 22.0909 14.8428 22.0812 14.219 21.9071C11.465 21.1381 8.99602 18.8141 6.78402 14.9831C4.57002 11.1471 3.79202 7.84305 4.51002 5.07005C4.67119 4.44639 4.9903 3.87476 5.43659 3.41025C5.88288 2.94575 6.4403 2.60404 7.05702 2.41805ZM7.49002 3.85505C7.11991 3.96636 6.78471 4.17113 6.51672 4.44962C6.24874 4.72811 6.05701 5.07094 5.96002 5.44505C5.35802 7.77705 6.04702 10.7061 8.08302 14.2331C10.117 17.7551 12.306 19.8151 14.623 20.4631C14.9973 20.5674 15.3922 20.5731 15.7694 20.4795C16.1465 20.386 16.493 20.1963 16.775 19.9291L17.661 19.0891C17.8808 18.8808 18.0176 18.5999 18.0459 18.2985C18.0742 17.997 17.9922 17.6956 17.815 17.4501L16.535 15.6751C16.3823 15.4633 16.167 15.3046 15.9195 15.2214C15.672 15.1382 15.4047 15.1346 15.155 15.2111L13.14 15.8281C11.97 16.1761 10.909 15.2351 9.76902 13.2601C9.00002 11.9301 8.64202 10.9001 8.73202 10.0991C8.77802 9.68305 8.97202 9.29905 9.27702 9.01305L10.772 7.62005C10.9629 7.44195 11.0932 7.20856 11.1446 6.95264C11.1961 6.69671 11.1662 6.4311 11.059 6.19305L10.158 4.18705C10.0335 3.91024 9.81255 3.68819 9.53636 3.56233C9.26016 3.43647 8.94761 3.4154 8.65702 3.50305L7.49002 3.85505Z" fill="white"/>
</svg>